<?xml version="1.0" encoding="UTF-8"?>
<svg id="Layer_1" xmlns="http://www.w3.org/2000/svg" version="1.1" viewBox="0 0 40 40">
  <!-- Generator: Adobe Illustrator 29.5.1, SVG Export Plug-In . SVG Version: 2.1.0 Build 141)  -->
  <defs>
    <style>
      .st0 {
        fill: #f0f0f0;
      }

      .st1 {
        fill: none;
        stroke: #f1f0f0;
        stroke-miterlimit: 10;
        stroke-width: 3px;
      }
    </style>
  </defs>
  <circle class="st1" cx="20" cy="20.3" r="17.8"/>
  <path class="st0" d="M16.5,31c1.2-.1,2-.3,2.3-.6s.5-1.1.5-2.5v-8.2c0-.7,0-1.3-.2-1.5-.2-.5-.5-.7-1.1-.7s-.2,0-.4,0-.5.1-1,.3v-.5l.7-.2c2-.6,3.4-1.1,4.2-1.5.3-.1.5-.2.6-.2,0,0,0,.2,0,.3v12.3c0,1.3.2,2.1.5,2.4s1,.5,2.1.6v.5h-8.3v-.5ZM19.2,8.2c.3-.4.8-.5,1.3-.5s.9.2,1.3.5c.3.3.5.8.5,1.3s-.2.9-.5,1.3-.8.5-1.3.5-.9-.2-1.3-.5-.5-.8-.5-1.3.2-.9.5-1.3Z"/>
</svg>