<?xml version="1.0" encoding="UTF-8"?>
<svg id="Layer_1" xmlns="http://www.w3.org/2000/svg" version="1.1" viewBox="0 0 40 40">
  <!-- Generator: Adobe Illustrator 29.5.1, SVG Export Plug-In . SVG Version: 2.1.0 Build 141)  -->
  <defs>
    <style>
      .st0 {
        fill: #f1f0f0;
      }
    </style>
  </defs>
  <path class="st0" d="M9.6,27.4l-4.1,12.4H.3L13.7.3h6.1l13.5,39.4h-5.4l-4.2-12.4h-14ZM22.6,23.4l-3.9-11.4c-.9-2.6-1.5-4.9-2-7.2h-.1c-.6,2.3-1.2,4.7-2,7.1l-3.9,11.4h11.9Z"/>
  <path class="st0" d="M27.3,14.6l-2.2,6.6h-2.8L29.4.3h3.2l7.1,20.8h-2.9l-2.2-6.6h-7.4ZM34.1,12.5l-2-6c-.5-1.4-.8-2.6-1.1-3.8h0c-.3,1.2-.6,2.5-1.1,3.8l-2,6h6.3Z"/>
</svg>