<?xml version="1.0" encoding="UTF-8"?>
<svg id="Layer_1" xmlns="http://www.w3.org/2000/svg" version="1.1" viewBox="0 0 40 40">
  <!-- Generator: Adobe Illustrator 29.5.1, SVG Export Plug-In . SVG Version: 2.1.0 Build 141)  -->
  <defs>
    <style>
      .st0 {
        fill: #f1f0f0;
      }
    </style>
  </defs>
  <path class="st0" d="M10.2,26.8l-3.8,11.6H1.5L14,1.5h5.8l12.6,36.9h-5.1l-3.9-11.6h-13.1ZM22.3,23.1l-3.6-10.6c-.8-2.4-1.4-4.6-1.9-6.7h-.1c-.5,2.2-1.2,4.4-1.9,6.7l-3.6,10.7h11.1Z"/>
  <path class="st0" d="M26.5,15.1l-2.1,6.2h-2.7L28.5,1.5h3.1l6.8,19.9h-2.7l-2.1-6.2h-7ZM33,13.1l-1.9-5.7c-.4-1.3-.7-2.5-1-3.6h0c-.3,1.2-.6,2.4-1,3.6l-1.9,5.7h6Z"/>
</svg>