<?xml version="1.0" encoding="UTF-8"?>
<svg id="Layer_1" xmlns="http://www.w3.org/2000/svg" version="1.1" viewBox="0 0 40 40">
  <!-- Generator: Adobe Illustrator 29.5.1, SVG Export Plug-In . SVG Version: 2.1.0 Build 141)  -->
  <defs>
    <style>
      .st0 {
        fill: #f1f0f0;
      }
    </style>
  </defs>
  <path class="st0" d="M10.2,26.8l-3.8,11.6H1.5L14,1.5h5.8l12.6,36.9h-5.1l-3.9-11.6h-13.2ZM22.3,23.1l-3.6-10.6c-.8-2.4-1.4-4.6-1.9-6.7h-.1c-.5,2.2-1.2,4.4-1.9,6.7l-3.6,10.7h11.1Z"/>
  <path class="st0" d="M31.9,1.5h-3.5l-5.2,15.1,1.5,4.5,1.4-4.2h.1c0,.1,7.9.1,7.9.1l2.4,7h3.1L31.9,1.5ZM26.9,14.7l2.2-6.5c.5-1.4.8-2.7,1.1-4.1.3,1.2.7,2.6,1.1,4.1l2.2,6.5h-6.6Z"/>
</svg>