<?xml version="1.0" encoding="UTF-8"?>
<svg id="Layer_1" xmlns="http://www.w3.org/2000/svg" version="1.1" viewBox="0 0 40 40">
  <!-- Generator: Adobe Illustrator 29.5.1, SVG Export Plug-In . SVG Version: 2.1.0 Build 141)  -->
  <defs>
    <style>
      .st0 {
        fill: none;
        stroke-width: 4px;
      }

      .st0, .st1 {
        stroke: #f1f0f0;
        stroke-miterlimit: 10;
      }

      .st1 {
        fill: #f0f0f0;
        stroke-width: 2px;
      }
    </style>
  </defs>
  <circle class="st0" cx="20" cy="20" r="17.8"/>
  <path class="st1" d="M15.8,30.7c1.3-.1,2.2-.4,2.5-.7s.5-1.2.5-2.7v-8.9c0-.8,0-1.4-.2-1.7-.2-.5-.6-.8-1.2-.8s-.3,0-.4,0-.5.1-1.1.3v-.6l.8-.3c2.2-.7,3.7-1.2,4.5-1.6.3-.1.6-.2.7-.2,0,0,0,.2,0,.3v13.4c0,1.4.2,2.3.5,2.7s1.1.6,2.3.7v.5h-9v-.5ZM18.7,8c.4-.4.8-.6,1.4-.6s1,.2,1.4.6c.4.4.6.8.6,1.4s-.2,1-.6,1.4-.8.6-1.4.6-1-.2-1.4-.6-.6-.8-.6-1.4.2-1,.6-1.4Z"/>
</svg>