<?xml version="1.0" encoding="UTF-8"?>
<svg id="Layer_1" xmlns="http://www.w3.org/2000/svg" version="1.1" viewBox="0 0 40 40">
  <!-- Generator: Adobe Illustrator 29.5.1, SVG Export Plug-In . SVG Version: 2.1.0 Build 141)  -->
  <defs>
    <style>
      .st0 {
        fill: none;
        stroke-width: 4px;
      }

      .st0, .st1 {
        stroke: #f1f0f0;
        stroke-miterlimit: 10;
      }

      .st1 {
        fill: #f0f0f0;
        stroke-width: 1.7px;
      }
    </style>
  </defs>
  <circle class="st0" cx="20" cy="20" r="17.8"/>
  <path class="st1" d="M16.2,28.4c1.1-.1,1.8-.3,2.1-.6s.4-1,.4-2.3v-7.5c0-.7,0-1.2-.1-1.4-.2-.4-.5-.6-1-.6s-.2,0-.3,0-.4.1-1,.3v-.5l.7-.2c1.8-.6,3.1-1.1,3.9-1.4.3-.1.5-.2.6-.2,0,0,0,.2,0,.2v11.3c0,1.2.1,2,.4,2.3s.9.5,2,.6v.4h-7.7v-.4ZM18.7,9.1c.3-.3.7-.5,1.2-.5s.8.2,1.2.5c.3.3.5.7.5,1.2s-.2.8-.5,1.2-.7.5-1.2.5-.9-.2-1.2-.5-.5-.7-.5-1.2.2-.8.5-1.2Z"/>
</svg>